<svg width="25" height="25" viewBox="0 0 25 25" fill="none" xmlns="http://www.w3.org/2000/svg">
<path d="M12.5 25C19.4036 25 25 19.4036 25 12.5C25 5.59644 19.4036 0 12.5 0C5.59644 0 0 5.59644 0 12.5C0 19.4036 5.59644 25 12.5 25Z" fill="url(#paint0_linear_29_19)"/>
<path opacity="0.2" d="M12.4999 24.5848C5.66582 24.5848 0.113672 19.1002 0.00263672 12.2925C0.00146484 12.3616 0 12.4307 0 12.5001C0 19.4036 5.59639 25 12.4999 25C19.4036 25 25 19.4036 25 12.5001C25 12.4307 24.9984 12.3616 24.9975 12.2925C24.8865 19.1002 19.3342 24.5848 12.4999 24.5848Z" fill="#D8D8D8"/>
<path opacity="0.1" d="M15.5968 12.7053L19.1829 9.11905C19.7465 8.55548 19.7468 7.63331 19.1829 7.06993L18.0557 5.94269C17.4927 5.37911 16.5699 5.37911 16.0063 5.94279L12.4203 9.52882L8.83406 5.94279C8.27048 5.37921 7.34822 5.37921 6.78464 5.94269L5.65779 7.06993C5.09421 7.63341 5.09421 8.55558 5.65779 9.11905L9.24392 12.7053L5.65779 16.2914C5.09421 16.8553 5.09421 17.7776 5.65779 18.3408L6.78464 19.468C7.34822 20.0321 8.27048 20.0318 8.83406 19.468L12.4202 15.8818L16.0062 19.468C16.5698 20.0318 17.4927 20.0321 18.0556 19.468L19.1828 18.3408C19.7467 17.7775 19.7464 16.8553 19.1828 16.2914L15.5968 12.7053Z" fill="#2C2C2C"/>
<path d="M15.5968 12.4287L19.1829 8.84238C19.7465 8.27891 19.7468 7.35664 19.1829 6.79326L18.0557 5.66602C17.4927 5.10254 16.5699 5.10254 16.0063 5.66621L12.4203 9.25225L8.83406 5.66611C8.27048 5.10254 7.34822 5.10254 6.78464 5.66592L5.65779 6.79316C5.09421 7.35664 5.09421 8.27891 5.65779 8.84228L9.24392 12.4286L5.65779 16.0147C5.09421 16.5785 5.09421 17.5009 5.65779 18.0642L6.78464 19.1913C7.34822 19.7554 8.27048 19.7551 8.83406 19.1913L12.4202 15.6052L16.0062 19.1913C16.5698 19.7551 17.4927 19.7554 18.0556 19.1913L19.1828 18.0642C19.7467 17.5008 19.7464 16.5785 19.1828 16.0147L15.5968 12.4287Z" fill="#FAFAFA"/>
<path opacity="0.2" d="M9.10543 12.2903L9.24381 12.1519L5.65777 8.56562C5.41099 8.31894 5.27232 8.00342 5.24166 7.67949C5.2022 8.09551 5.34097 8.52568 5.65777 8.84238L9.10543 12.2903ZM19.1829 8.84238C19.4999 8.52559 19.6386 8.09531 19.5992 7.6792C19.5686 8.00322 19.4297 8.31885 19.1829 8.56562L15.5967 12.1519L15.7352 12.2903L19.1829 8.84238ZM19.1829 17.7874L18.0557 18.9146C17.4926 19.4787 16.5699 19.4784 16.0063 18.9146L12.4203 15.3285L8.83404 18.9146C8.27047 19.4784 7.3482 19.4787 6.78463 18.9146L5.65777 17.7874C5.41099 17.5408 5.27232 17.2253 5.24166 16.9015C5.2022 17.3175 5.34097 17.7476 5.65777 18.0643L6.78463 19.1914C7.3482 19.7555 8.27047 19.7552 8.83404 19.1914L12.4202 15.6053L16.0062 19.1914C16.5698 19.7552 17.4926 19.7555 18.0556 19.1914L19.1828 18.0643C19.4998 17.7476 19.6384 17.3176 19.5991 16.9016C19.5683 17.2255 19.4296 17.5409 19.1829 17.7874Z" fill="#2C2C2C"/>
<defs>
<linearGradient id="paint0_linear_29_19" x1="12.4999" y1="0.0967773" x2="12.4999" y2="24.6736" gradientUnits="userSpaceOnUse">
<stop stop-color="#F15454"/>
<stop offset="1" stop-color="#D93B3B"/>
</linearGradient>
</defs>
</svg>
