<svg width="36" height="34" viewBox="0 0 36 34" fill="none" xmlns="http://www.w3.org/2000/svg">
<path d="M36 8.4V27C36 27.6365 35.7471 28.247 35.2971 28.6971C34.847 29.1471 34.2365 29.4 33.6 29.4H25.608C26.4683 28.0387 26.9476 26.4715 26.996 24.8619C27.0443 23.2522 26.6598 21.6591 25.8827 20.2487C25.1056 18.8382 23.9642 17.6621 22.5777 16.843C21.1912 16.0239 19.6104 15.5918 18 15.5918C16.3896 15.5918 14.8088 16.0239 13.4223 16.843C12.0358 17.6621 10.8944 18.8382 10.1173 20.2487C9.34019 21.6591 8.95574 23.2522 9.00405 24.8619C9.05237 26.4715 9.53168 28.0387 10.392 29.4H2.4C1.76348 29.4 1.15303 29.1471 0.702944 28.6971C0.252856 28.247 0 27.6365 0 27V2.4C0 1.76348 0.252856 1.15303 0.702944 0.702944C1.15303 0.252856 1.76348 0 2.4 0H11.352C11.7369 0.000251525 12.116 0.0930516 12.4575 0.270573C12.7989 0.448094 13.0927 0.705129 13.314 1.02L16.8 6H33.6C34.2365 6 34.847 6.25286 35.2971 6.70294C35.7471 7.15303 36 7.76348 36 8.4Z" fill="#FBCB00"/>
<path d="M27 24.6001C27 26.3802 26.4722 28.1202 25.4832 29.6003C24.4943 31.0803 23.0887 32.2339 21.4442 32.915C19.7996 33.5962 17.99 33.7745 16.2442 33.4272C14.4984 33.0799 12.8947 32.2228 11.636 30.9641C10.3774 29.7054 9.5202 28.1018 9.17294 26.3559C8.82567 24.6101 9.0039 22.8005 9.68509 21.156C10.3663 19.5114 11.5198 18.1058 12.9999 17.1169C14.4799 16.128 16.22 15.6001 18 15.6001C19.185 15.5889 20.3604 15.814 21.4574 16.2624C22.5544 16.7107 23.551 17.3732 24.389 18.2112C25.2269 19.0491 25.8895 20.0458 26.3378 21.1428C26.7861 22.2397 27.0112 23.4151 27 24.6001Z" fill="#BEDCFF"/>
<path d="M19.2001 18.1741H16.8001V24.7741C16.7996 25.0168 16.8727 25.254 17.0098 25.4543C17.1469 25.6547 17.3416 25.8087 17.5681 25.8961L22.2181 27.6961L23.0821 25.4521L19.2001 23.9521V18.1741Z" fill="#EE161F"/>
</svg>
