<svg width="25" height="25" viewBox="0 0 25 25" fill="none" xmlns="http://www.w3.org/2000/svg">
<path d="M12.5 5C12.6642 4.99996 12.8267 5.03226 12.9784 5.09506C13.1301 5.15787 13.2679 5.24994 13.384 5.36602C13.5001 5.4821 13.5921 5.61992 13.6549 5.7716C13.7177 5.92327 13.75 6.08584 13.75 6.25V11.7781L16.3721 13.2922C16.6591 13.4581 16.8684 13.7311 16.9542 14.0513C17.0399 14.3715 16.995 14.7126 16.8293 14.9997C16.6636 15.2867 16.3907 15.4963 16.0705 15.5822C15.7504 15.6681 15.4092 15.6233 15.1221 15.4578L11.875 13.5828C11.6853 13.4726 11.5278 13.3147 11.4182 13.1247C11.3085 12.9347 11.2505 12.7193 11.25 12.5V6.25C11.25 6.08584 11.2823 5.92327 11.3451 5.7716C11.4079 5.61992 11.4999 5.4821 11.616 5.36602C11.7321 5.24994 11.8699 5.15787 12.0216 5.09506C12.1733 5.03226 12.3358 4.99996 12.5 5Z" fill="#6563FF"/>
<path d="M0 12.5C0 14.9723 0.733112 17.389 2.10663 19.4446C3.48015 21.5002 5.43238 23.1024 7.71645 24.0485C10.0005 24.9946 12.5139 25.2421 14.9386 24.7598C17.3634 24.2775 19.5907 23.087 21.3388 21.3388C23.087 19.5907 24.2775 17.3634 24.7598 14.9386C25.2421 12.5139 24.9946 10.0005 24.0485 7.71645C23.1024 5.43238 21.5002 3.48015 19.4446 2.10663C17.389 0.733112 14.9723 0 12.5 0C10.8585 0 9.23302 0.323322 7.71645 0.951506C6.19988 1.57969 4.8219 2.50043 3.66116 3.66116C1.31696 6.00537 0 9.18479 0 12.5ZM11.25 6.25C11.25 5.91848 11.3817 5.60054 11.6161 5.36612C11.8505 5.13169 12.1685 5 12.5 5C12.8315 5 13.1495 5.13169 13.3839 5.36612C13.6183 5.60054 13.75 5.91848 13.75 6.25V11.7781L16.3721 13.2922C16.6591 13.4581 16.8684 13.7311 16.9542 14.0513C17.0399 14.3715 16.995 14.7126 16.8293 14.9997C16.6636 15.2867 16.3907 15.4963 16.0705 15.5822C15.7504 15.6681 15.4092 15.6233 15.1221 15.4578L11.875 13.5828C11.6853 13.4726 11.5278 13.3147 11.4182 13.1247C11.3085 12.9347 11.2505 12.7193 11.25 12.5V6.25Z" fill="#B2B1FF"/>
</svg>
