<svg width="25" height="25" viewBox="0 0 25 25" fill="none" xmlns="http://www.w3.org/2000/svg">
<path d="M25 22.2222C25 23.7563 23.7562 25 22.2222 25H2.77778C1.24375 25 0 23.7563 0 22.2222V2.77778C0 1.24375 1.24375 0 2.77778 0H22.2222C23.7562 0 25 1.24375 25 2.77778V22.2222Z" fill="#77B255"/>
<path d="M9.375 20.1389C8.93056 20.1389 8.48611 19.9695 8.14722 19.6306L3.63333 15.1167C2.95556 14.4382 2.95556 13.3396 3.63333 12.6611C4.31111 11.9834 5.41111 11.9834 6.08889 12.6611L9.375 15.9479L18.9111 6.41114C19.5896 5.73336 20.6882 5.73336 21.3667 6.41114C22.0444 7.08961 22.0444 8.18822 21.3667 8.86669L10.6028 19.6306C10.2639 19.9695 9.81944 20.1389 9.375 20.1389Z" fill="white"/>
</svg>
