<svg width="36" height="36" viewBox="0 0 36 36" fill="none" xmlns="http://www.w3.org/2000/svg">
<path d="M18 35.9999C27.9411 35.9999 36 27.941 36 17.9999C36 8.05885 27.9411 0 18 0C8.05888 0 0 8.05885 0 17.9999C0 27.941 8.05888 35.9999 18 35.9999Z" fill="#FFA517"/>
<path d="M29.1667 32.1065C25.9907 34.6277 22.0551 36 18 36C13.945 36 10.0093 34.6277 6.83337 32.1065L7.33337 30.3332C7.7108 29.0747 8.48572 27.9724 9.54212 27.1912C10.5985 26.41 11.8795 25.992 13.1934 25.9999H22.8067C24.1205 25.992 25.4015 26.41 26.4579 27.1912C27.5143 27.9724 28.2893 29.0747 28.6667 30.3332L29.1667 32.1065Z" fill="#132539"/>
<path d="M20.6667 22.6665V26.5065C20.6678 26.7557 20.5991 27.0002 20.4683 27.2123C20.3375 27.4244 20.1499 27.5956 19.9267 27.7065C19.3286 28.0057 18.6689 28.1615 18.0001 28.1615C17.3312 28.1615 16.6716 28.0057 16.0734 27.7065C15.8502 27.5956 15.6626 27.4244 15.5318 27.2123C15.401 27.0002 15.3323 26.7557 15.3334 26.5065V22.6665H20.6667Z" fill="#FFD2B4"/>
<path d="M18 6.80652C25.6334 6.80652 24.98 13.9998 24.98 13.9998C26.1 13.8865 26.98 14.3265 26.98 15.9065C26.98 17.4865 26.3134 17.8132 25.4134 17.9065C25.3667 17.9096 25.3227 17.9296 25.2896 17.9627C25.2565 17.9958 25.2365 18.0398 25.2334 18.0865C24.9734 20.5465 23.2334 22.3465 21.5134 23.5532C20.4834 24.2797 19.2538 24.6697 17.9934 24.6697C16.7329 24.6697 15.5034 24.2797 14.4734 23.5532C12.76 22.3465 11.0134 20.5398 10.7534 18.0865C10.7503 18.0398 10.7303 17.9958 10.6972 17.9627C10.6641 17.9296 10.6201 17.9096 10.5734 17.9065C9.70005 17.8198 9.00671 17.4865 9.00671 15.9065C9.00671 14.3265 9.85338 13.9065 10.9667 13.9998C10.98 13.9998 10.36 6.80652 18 6.80652Z" fill="#FFD2B4"/>
<path opacity="0.1" d="M20.6667 24.0532V25.0532C19.8356 25.4566 18.9238 25.6662 18 25.6662C17.0762 25.6662 16.1644 25.4566 15.3334 25.0532V24.0532C16.1644 24.4566 17.0762 24.6662 18 24.6662C18.9238 24.6662 19.8356 24.4566 20.6667 24.0532Z" fill="#262234"/>
<path d="M15.36 16.5666C15.9859 16.5666 16.4933 16.0592 16.4933 15.4332C16.4933 14.8073 15.9859 14.2999 15.36 14.2999C14.7341 14.2999 14.2267 14.8073 14.2267 15.4332C14.2267 16.0592 14.7341 16.5666 15.36 16.5666Z" fill="#262234"/>
<path d="M20.64 16.5666C21.266 16.5666 21.7734 16.0592 21.7734 15.4332C21.7734 14.8073 21.266 14.2999 20.64 14.2999C20.0141 14.2999 19.5067 14.8073 19.5067 15.4332C19.5067 16.0592 20.0141 16.5666 20.64 16.5666Z" fill="#262234"/>
<path d="M20.58 18.3534C20.6835 18.3501 20.7864 18.3709 20.8805 18.4143C20.9745 18.4577 21.0572 18.5224 21.1219 18.6032C21.1866 18.6841 21.2315 18.7789 21.2532 18.8802C21.2749 18.9815 21.2726 19.0864 21.2467 19.1867C21.0614 19.9015 20.644 20.5345 20.06 20.9864C19.476 21.4383 18.7584 21.6835 18.02 21.6835C17.2816 21.6835 16.5641 21.4383 15.9801 20.9864C15.3961 20.5345 14.9787 19.9015 14.7934 19.1867C14.7674 19.0864 14.7652 18.9815 14.7868 18.8802C14.8085 18.7789 14.8535 18.6841 14.9182 18.6032C14.9829 18.5224 15.0655 18.4577 15.1596 18.4143C15.2536 18.3709 15.3565 18.3501 15.46 18.3534H20.58Z" fill="#611C24"/>
<path d="M19.6133 21.2732C19.1194 21.5464 18.5643 21.6897 17.9999 21.6897C17.4356 21.6897 16.8805 21.5464 16.3866 21.2732C16.5199 20.4532 17.1933 20.2266 17.9999 20.2266C18.8066 20.2266 19.4799 20.4532 19.6133 21.2732Z" fill="#BE1E2D"/>
<path d="M19.9133 18.3533V18.9866C19.9134 19.0509 19.8883 19.1127 19.8435 19.1587C19.7986 19.2048 19.7376 19.2316 19.6733 19.2333H16.34C16.2757 19.2316 16.2147 19.2048 16.1699 19.1587C16.125 19.1127 16.1 19.0509 16.1 18.9866V18.3533H19.9133Z" fill="white"/>
<path d="M18 5.7533C12.1133 5.7533 10.46 10.2266 10.46 14.2333C10.4757 14.7106 10.545 15.1847 10.6666 15.6466C10.7866 16.1266 12.0466 16.1066 12.1266 15.6466C12.0518 14.0894 12.3039 12.5338 12.8666 11.0799C12.9211 10.9447 13.0184 10.8311 13.1436 10.7564C13.2689 10.6818 13.4151 10.6502 13.56 10.6666C15.0533 10.8866 19.64 11.4533 22.4066 10.7466C22.5658 10.7023 22.7358 10.7186 22.8837 10.7925C23.0315 10.8665 23.1466 10.9926 23.2066 11.1466C23.7454 12.583 23.9858 14.1142 23.9133 15.6466C23.9866 16.0733 25.2466 16.0933 25.3733 15.6466C25.4837 15.1834 25.5418 14.7094 25.5466 14.2333C25.54 10.2199 23.8933 5.7533 18 5.7533Z" fill="#262234"/>
<path d="M25.6533 11.4065C20.6407 9.98753 15.3326 9.98753 10.32 11.4065C10.3006 10.3793 10.4839 9.35836 10.8595 8.4021C11.2352 7.44583 11.7957 6.57304 12.5091 5.83367C13.2224 5.09431 14.0746 4.50289 15.0168 4.09327C15.959 3.68365 16.9727 3.46388 18 3.44653C20.07 3.48856 22.0387 4.35047 23.4737 5.84296C24.9087 7.33544 25.6926 9.33647 25.6533 11.4065Z" fill="#F26522"/>
<path d="M24.3533 10.0666H20.6666V4.81999C20.6666 4.27011 20.4482 3.74275 20.0594 3.35392C19.6705 2.9651 19.1432 2.74666 18.5933 2.74666H17.46C17.1832 2.73954 16.9079 2.7879 16.6501 2.88891C16.3924 2.98991 16.1575 3.1415 15.9593 3.33474C15.7611 3.52798 15.6036 3.75896 15.4961 4.01404C15.3885 4.26913 15.3332 4.54317 15.3333 4.81999V10.0666H11.6466C11.0985 10.0666 10.5728 10.2844 10.1853 10.672C9.79769 11.0595 9.57996 11.5852 9.57996 12.1333V12.4866C9.57996 12.5927 9.6221 12.6945 9.69711 12.7695C9.77213 12.8445 9.87387 12.8866 9.97996 12.8866H26C26.1061 12.8866 26.2078 12.8445 26.2828 12.7695C26.3578 12.6945 26.4 12.5927 26.4 12.4866V12.1333C26.4 11.5886 26.185 11.066 25.8017 10.679C25.4185 10.292 24.8979 10.0719 24.3533 10.0666Z" fill="#E84E0F"/>
<path d="M25.5933 26.6665V34.3198C23.2148 35.4265 20.6232 35.9999 17.9999 35.9999C15.3766 35.9999 12.7851 35.4265 10.4066 34.3198V26.6665C11.268 26.2225 12.2242 25.9938 13.1933 25.9999L13.5799 29.7332C13.5965 29.8982 13.674 30.0511 13.7973 30.1621C13.9206 30.273 14.0808 30.334 14.2466 30.3332H21.7599C21.9258 30.334 22.086 30.273 22.2093 30.1621C22.3325 30.0511 22.41 29.8982 22.4266 29.7332L22.8133 25.9999C23.7801 25.9949 24.7338 26.2236 25.5933 26.6665Z" fill="#F26522"/>
<path d="M23.4133 33.0531V35.1665C19.89 36.2776 16.11 36.2776 12.5867 35.1665V33.0531C12.5867 32.8763 12.6569 32.7068 12.7819 32.5817C12.907 32.4567 13.0765 32.3865 13.2533 32.3865H22.7467C22.9235 32.3865 23.093 32.4567 23.2181 32.5817C23.3431 32.7068 23.4133 32.8763 23.4133 33.0531Z" fill="#E84E0F"/>
</svg>
