<svg width="36" height="40" viewBox="0 0 36 40" fill="none" xmlns="http://www.w3.org/2000/svg">
<path d="M36 38.269V28.918C36 27.6512 35.5357 26.4166 34.6731 25.3897C33.8105 24.3628 32.5935 23.596 31.195 23.198L23.655 21.0526C23.3053 20.9531 23.0011 20.7614 22.7854 20.5047C22.5698 20.248 22.4537 19.9393 22.4537 19.6226V17.7195H13.5463V19.6226C13.5463 19.9393 13.4302 20.248 13.2146 20.5047C12.9989 20.7614 12.6947 20.9531 12.345 21.0526L4.80497 23.198C3.40653 23.596 2.18952 24.3628 1.32691 25.3897C0.464303 26.4166 -1.06518e-07 27.6512 0 28.918V38.269C0 38.4687 0.0922566 38.6603 0.256474 38.8015C0.420692 38.9427 0.643419 39.0221 0.875659 39.0221H35.1243C35.3566 39.0221 35.5793 38.9427 35.7435 38.8015C35.9077 38.6603 36 38.4687 36 38.269Z" fill="#F66366"/>
<path d="M17.387 39.0223V28.8425C17.387 28.2328 17.5304 27.6294 17.8088 27.0686C18.0871 26.5078 18.4945 26.0013 19.0064 25.5795L24.7391 21.3613L29.8107 22.8044V22.8325C28.3005 25.9278 28.2294 29.4036 29.6122 32.5426C29.7433 32.8399 29.8106 33.1551 29.8107 33.4731V39.0223H17.387Z" fill="#FCBA63"/>
<path d="M29.8109 34.3267H17.387V37.4897H29.8109V34.3267Z" fill="#FC7B55"/>
<path d="M17.387 32.7446H29.69C29.6671 32.6765 29.6415 32.609 29.6122 32.5424C29.1925 31.5876 28.9035 30.5939 28.7511 29.5815H17.387V32.7446Z" fill="#FC7B55"/>
<path d="M18.6129 25.9424C17.8212 26.7554 17.3872 27.782 17.387 28.8424V39.0222H19.8387V28.8424C19.8385 27.782 19.4045 26.7554 18.6129 25.9424Z" fill="#E58E41"/>
<path d="M19.8387 34.3267H17.387V37.4897H19.8387V34.3267Z" fill="#EE5034"/>
<path d="M19.8387 29.5815H17.387V32.7448H19.8387V29.5815Z" fill="#EE5034"/>
<path d="M18.6129 39.0223V28.8425C18.6129 28.2328 18.4694 27.6294 18.1911 27.0686C17.9128 26.5078 17.5054 26.0013 16.9935 25.5795L11.2608 21.3613L6.18921 22.8044V22.8325C6.97371 24.4418 7.37708 26.1696 7.37573 27.9146C7.37332 29.4959 7.03863 31.0637 6.38778 32.5426C6.25665 32.8399 6.18936 33.1551 6.18921 33.4731V39.0223H18.6129Z" fill="#FCBA63"/>
<path d="M6.38764 32.5424C6.35834 32.609 6.33272 32.6765 6.30981 32.7446H18.6128V29.5815H7.24875C7.09628 30.5939 6.8073 31.5876 6.38764 32.5424Z" fill="#FC7B55"/>
<path d="M16.161 31.6903C16.4996 31.6903 16.774 31.4543 16.774 31.1631C16.774 30.872 16.4996 30.636 16.161 30.636C15.8225 30.636 15.5481 30.872 15.5481 31.1631C15.5481 31.4543 15.8225 31.6903 16.161 31.6903Z" fill="#343C49"/>
<path d="M18.6129 34.3267H6.18909V37.4897H18.6129V34.3267Z" fill="#FC7B55"/>
<path d="M16.161 36.4348C16.4996 36.4348 16.774 36.1988 16.774 35.9077C16.774 35.6166 16.4996 35.3806 16.161 35.3806C15.8225 35.3806 15.5481 35.6166 15.5481 35.9077C15.5481 36.1988 15.8225 36.4348 16.161 36.4348Z" fill="#343C49"/>
<path d="M12.9164 20.7786C13.5491 21.4036 14.3302 21.9047 15.2072 22.2481C16.0841 22.5915 17.0365 22.7692 18 22.7692C18.9636 22.7692 19.9159 22.5915 20.7928 22.2481C21.6698 21.9047 22.4509 21.4036 23.0836 20.7786C22.8865 20.6374 22.728 20.4606 22.6191 20.2609C22.5103 20.0611 22.4538 19.8432 22.4537 19.6226V17.7195H13.5463V19.6226C13.5462 19.8432 13.4897 20.0611 13.3809 20.2609C13.272 20.4606 13.1135 20.6374 12.9164 20.7786ZM6.18913 39.0221H0.875659C0.64342 39.0221 0.420692 38.9427 0.256475 38.8015C0.0922566 38.6603 0 38.4687 0 38.269V35.5466H6.18913V39.0221ZM29.8108 35.5466H35.9999L36 38.269C36 38.3679 35.9774 38.4658 35.9333 38.5572C35.8893 38.6486 35.8248 38.7316 35.7435 38.8015C35.6622 38.8714 35.5657 38.9269 35.4594 38.9648C35.3532 39.0026 35.2393 39.0221 35.1243 39.0221H29.8108L29.8108 35.5466Z" fill="#F7BDAD"/>
<path d="M24.4082 11.8206V8.729H24.91C25.3201 8.729 25.7134 8.86913 26.0034 9.11855C26.2934 9.36797 26.4564 9.70626 26.4564 10.059C26.4564 10.2903 26.4034 10.5194 26.3005 10.7331C26.1975 10.9468 26.0467 11.141 25.8565 11.3046C25.6663 11.4682 25.4405 11.5979 25.192 11.6865C24.9435 11.775 24.6772 11.8206 24.4082 11.8206Z" fill="#E2897D"/>
<path d="M11.5583 11.8203H11.5583C11.0151 11.8203 10.4942 11.6347 10.1101 11.3044C9.72598 10.974 9.51019 10.526 9.51019 10.0588V10.0588C9.51019 9.70611 9.67312 9.36783 9.96312 9.11841C10.2531 8.869 10.6465 8.72888 11.0566 8.72888H11.5583V11.8203Z" fill="#E2897D"/>
<path d="M13.5463 17.7195V18.2943C13.9679 18.9458 14.5514 19.5093 15.2553 19.9446L16.0615 20.4431C16.9835 21.0132 18.0904 21.3199 19.2259 21.3199H19.2259C20.3615 21.3199 21.4683 21.0132 22.3903 20.4431L22.6366 20.2908C22.5164 20.0832 22.4538 19.8545 22.4537 19.6226V17.7195H13.5463Z" fill="#E2897D"/>
<path d="M24.4249 12.7838V14.2455C24.4249 15.0501 24.2023 15.8431 23.7756 16.559C23.3488 17.275 22.7301 17.8933 21.9706 18.363L21.1644 18.8616C20.2424 19.4317 19.1355 19.7384 18 19.7384C16.8644 19.7384 15.7576 19.4317 14.8356 18.8616L14.0294 18.363C13.2699 17.8933 12.6512 17.275 12.2244 16.559C11.7976 15.8431 11.5751 15.0501 11.5751 14.2455V12.7838V8.483L24.4249 8.14893L24.4249 12.7838Z" fill="#F7BDAD"/>
<path d="M20.9893 16.1069L18.8856 15.7903C18.2996 15.7021 17.7003 15.7021 17.1143 15.7903L15.0106 16.1069C14.9477 16.1164 14.8831 16.1139 14.8214 16.0996C14.7597 16.0853 14.7024 16.0596 14.6535 16.0243C14.6046 15.9889 14.5653 15.9448 14.5383 15.895C14.5113 15.8452 14.4973 15.7909 14.4973 15.736V14.919C14.4973 14.8304 14.5336 14.7446 14.5999 14.6768C14.6662 14.6089 14.7582 14.5633 14.8597 14.5481L17.1143 14.2087C17.7003 14.1205 18.2996 14.1205 18.8856 14.2087L21.1402 14.5481C21.2417 14.5633 21.3337 14.6089 21.4 14.6768C21.4662 14.7446 21.5026 14.8304 21.5026 14.919V15.736C21.5026 15.7909 21.4886 15.8452 21.4616 15.895C21.4346 15.9448 21.3953 15.9889 21.3464 16.0243C21.2975 16.0596 21.2402 16.0854 21.1785 16.0996C21.1168 16.1139 21.0522 16.1164 20.9893 16.1069Z" fill="#343C49"/>
<path d="M19.1124 13.3625V13.717C19.1124 13.9707 18.9952 14.2139 18.7867 14.3933C18.5781 14.5727 18.2952 14.6735 18.0002 14.6735H17.9997C17.7047 14.6735 17.4218 14.5727 17.2132 14.3933C17.0046 14.2139 16.8875 13.9707 16.8875 13.717V13.3625C16.8875 13.2826 16.9244 13.206 16.99 13.1495C17.0557 13.093 17.1448 13.0613 17.2377 13.0613H18.7622C18.8551 13.0613 18.9441 13.093 19.0098 13.1495C19.0755 13.206 19.1124 13.2826 19.1124 13.3625Z" fill="#E2897D"/>
<path d="M18.0001 0.726318H18.0001C18.9844 0.726318 19.9592 0.893071 20.8686 1.21706C21.7781 1.54104 22.6044 2.01591 23.3005 2.61456C23.9965 3.2132 24.5487 3.9239 24.9254 4.70607C25.3021 5.48823 25.496 6.32656 25.496 7.17317V7.84863H10.5042V7.17317C10.5041 6.32656 10.698 5.48823 11.0747 4.70607C11.4514 3.9239 12.0036 3.2132 12.6996 2.61456C13.3957 2.01591 14.222 1.54104 15.1315 1.21706C16.0409 0.893071 17.0157 0.726319 18.0001 0.726318Z" fill="#FCBA63"/>
<path d="M24.0352 11.7144L20.1803 12.6006C20.0764 12.6245 19.967 12.6245 19.8631 12.6005C19.7593 12.5765 19.6646 12.5295 19.5885 12.4641L18.3715 11.4172C18.3227 11.3752 18.2648 11.342 18.2011 11.3192C18.1373 11.2965 18.069 11.2848 18 11.2848C17.931 11.2848 17.8627 11.2965 17.7989 11.3192C17.7352 11.3419 17.6772 11.3752 17.6285 11.4172L16.4112 12.4641C16.3351 12.5295 16.2404 12.5766 16.1366 12.6005C16.0327 12.6245 15.9233 12.6245 15.8195 12.6006L11.9648 11.7144C11.853 11.6887 11.7542 11.632 11.6837 11.5531C11.6133 11.4741 11.5751 11.3774 11.5751 11.2779V8.80981H24.4249V11.2779C24.4249 11.3774 24.3867 11.4741 24.3163 11.5531C24.2458 11.632 24.147 11.6887 24.0352 11.7144Z" fill="#CCE3FD"/>
<path d="M25.6621 7.22852H10.3381C10.1446 7.22852 9.98779 7.36339 9.98779 7.52976V8.50881C9.98779 8.67519 10.1446 8.81006 10.3381 8.81006H25.6621C25.8555 8.81006 26.0123 8.67519 26.0123 8.50881V7.52976C26.0123 7.36339 25.8555 7.22852 25.6621 7.22852Z" fill="#E58E41"/>
</svg>
