<svg width="36" height="36" viewBox="0 0 36 36" fill="none" xmlns="http://www.w3.org/2000/svg">
<path d="M30 0H6C2.68629 0 0 2.68629 0 6V30C0 33.3137 2.68629 36 6 36H30C33.3137 36 36 33.3137 36 30V6C36 2.68629 33.3137 0 30 0Z" fill="#F05542"/>
<path opacity="0.15" d="M17.5 6.5C16.1211 6.5 14.7557 6.77164 13.4818 7.29932C12.2079 7.82699 11.0504 8.60043 10.0754 9.57544C9.10036 10.5505 8.32694 11.7079 7.79926 12.9818C7.27159 14.2557 7 15.6211 7 17C7.00019 18.7133 7.41963 20.4005 8.22171 21.9144C9.02379 23.4284 10.1842 24.7231 11.6016 25.6856C11.4345 26.3103 11.1613 26.9165 10.7617 27.4728C10.1298 28.3512 9.45173 29.024 8.43945 29.4064C10.3571 29.7828 13.8191 29.0079 14.9609 27.422C15.0104 27.353 15.0522 27.2815 15.0977 27.211C15.8846 27.3996 16.6908 27.4966 17.5 27.5C18.8789 27.5 20.2443 27.2285 21.5182 26.7008C22.7921 26.1732 23.9496 25.3997 24.9246 24.4247C25.8996 23.4497 26.6731 22.2921 27.2007 21.0182C27.7284 19.7443 28 18.3789 28 17C28 15.6211 27.7284 14.2557 27.2007 12.9818C26.6731 11.7079 25.8996 10.5505 24.9246 9.57544C23.9496 8.60043 22.7921 7.82699 21.5182 7.29932C20.2443 6.77164 18.8789 6.5 17.5 6.5Z" fill="black"/>
<path d="M18.5 6.5C17.1211 6.5 15.7557 6.77164 14.4818 7.29932C13.2079 7.82699 12.0504 8.60043 11.0754 9.57544C10.1004 10.5505 9.32694 11.7079 8.79926 12.9818C8.27159 14.2557 8 15.6211 8 17C8.00019 18.7133 8.41963 20.4005 9.22171 21.9144C10.0238 23.4284 11.1842 24.7231 12.6016 25.6856C12.4345 26.3103 12.1613 26.9165 11.7617 27.4728C11.1298 28.3512 10.4517 29.024 9.43945 29.4064C11.3571 29.7828 14.8191 29.0079 15.9609 27.422C16.0104 27.353 16.0522 27.2815 16.0977 27.211C16.8846 27.3996 17.6908 27.4966 18.5 27.5C19.8789 27.5 21.2443 27.2285 22.5182 26.7008C23.7921 26.1732 24.9496 25.3997 25.9246 24.4247C26.8996 23.4497 27.6731 22.2921 28.2007 21.0182C28.7284 19.7443 29 18.3789 29 17C29 15.6211 28.7284 14.2557 28.2007 12.9818C27.6731 11.7079 26.8996 10.5505 25.9246 9.57544C24.9496 8.60043 23.7921 7.82699 22.5182 7.29932C21.2443 6.77164 19.8789 6.5 18.5 6.5Z" fill="#4BBFEB"/>
<path opacity="0.15" d="M17.5001 11.6902C16.9301 11.6902 16.4951 12.1251 16.4951 12.7401C16.4951 13.3401 16.9301 13.7751 17.5001 13.7751C18.0701 13.7751 18.5051 13.3401 18.5051 12.7401C18.5051 12.1251 18.0701 11.6902 17.5001 11.6902ZM18.5001 23.0001V15.0201H16.5001V23.0001H18.5001Z" fill="black"/>
<path d="M18.5001 11.6902C17.9301 11.6902 17.4951 12.1251 17.4951 12.7401C17.4951 13.3401 17.9301 13.7751 18.5001 13.7751C19.0701 13.7751 19.5051 13.3401 19.5051 12.7401C19.5051 12.1251 19.0701 11.6902 18.5001 11.6902ZM19.5001 23.0001V15.0201H17.5001V23.0001H19.5001Z" fill="#2B4255"/>
</svg>
